<svg width="130" height="23" viewBox="0 0 130 23" fill="none" xmlns="http://www.w3.org/2000/svg">
<path d="M0.79 22V1.06H13.57V3.28H3.31V10.3H12.97V12.52H3.31V19.78H13.57V22H0.79ZM23.5073 22.36C22.4273 22.36 21.4573 22.17 20.5973 21.79C19.7373 21.41 19.0073 20.87 18.4073 20.17C17.8273 19.47 17.3773 18.62 17.0573 17.62C16.7573 16.62 16.6073 15.5 16.6073 14.26C16.6073 13.02 16.7573 11.9 17.0573 10.9C17.3773 9.9 17.8273 9.05 18.4073 8.35C19.0073 7.65 19.7373 7.11 20.5973 6.73C21.4573 6.35 22.4273 6.16 23.5073 6.16C25.0473 6.16 26.2773 6.5 27.1973 7.18C28.1373 7.84 28.8373 8.71 29.2973 9.79L27.2873 10.81C27.0073 10.01 26.5473 9.39 25.9073 8.95C25.2673 8.51 24.4673 8.29 23.5073 8.29C22.7873 8.29 22.1573 8.41 21.6173 8.65C21.0773 8.87 20.6273 9.19 20.2673 9.61C19.9073 10.01 19.6373 10.5 19.4573 11.08C19.2773 11.64 19.1873 12.26 19.1873 12.94V15.58C19.1873 16.94 19.5473 18.06 20.2673 18.94C21.0073 19.8 22.0873 20.23 23.5073 20.23C25.4473 20.23 26.8473 19.33 27.7073 17.53L29.4473 18.7C28.9473 19.82 28.1973 20.71 27.1973 21.37C26.2173 22.03 24.9873 22.36 23.5073 22.36ZM38.5094 22.36C37.4694 22.36 36.5194 22.17 35.6594 21.79C34.7994 21.41 34.0594 20.87 33.4394 20.17C32.8394 19.45 32.3694 18.6 32.0294 17.62C31.6894 16.62 31.5194 15.5 31.5194 14.26C31.5194 13.04 31.6894 11.93 32.0294 10.93C32.3694 9.93 32.8394 9.08 33.4394 8.38C34.0594 7.66 34.7994 7.11 35.6594 6.73C36.5194 6.35 37.4694 6.16 38.5094 6.16C39.5494 6.16 40.4894 6.35 41.3294 6.73C42.1894 7.11 42.9294 7.66 43.5494 8.38C44.1694 9.08 44.6494 9.93 44.9894 10.93C45.3294 11.93 45.4994 13.04 45.4994 14.26C45.4994 15.5 45.3294 16.62 44.9894 17.62C44.6494 18.6 44.1694 19.45 43.5494 20.17C42.9294 20.87 42.1894 21.41 41.3294 21.79C40.4894 22.17 39.5494 22.36 38.5094 22.36ZM38.5094 20.23C39.8094 20.23 40.8694 19.83 41.6894 19.03C42.5094 18.23 42.9194 17.01 42.9194 15.37V13.15C42.9194 11.51 42.5094 10.29 41.6894 9.49C40.8694 8.69 39.8094 8.29 38.5094 8.29C37.2094 8.29 36.1494 8.69 35.3294 9.49C34.5094 10.29 34.0994 11.51 34.0994 13.15V15.37C34.0994 17.01 34.5094 18.23 35.3294 19.03C36.1494 19.83 37.2094 20.23 38.5094 20.23ZM49.2595 14.17V11.59H57.0895V14.17H49.2595ZM67.2559 22.36C65.5559 22.36 64.1059 22.04 62.9059 21.4C61.7059 20.74 60.6859 19.84 59.8459 18.7L61.7059 17.14C62.4459 18.12 63.2659 18.87 64.1659 19.39C65.0659 19.89 66.1259 20.14 67.3459 20.14C68.8459 20.14 69.9859 19.78 70.7659 19.06C71.5659 18.34 71.9659 17.38 71.9659 16.18C71.9659 15.18 71.6659 14.41 71.0659 13.87C70.4659 13.33 69.4759 12.9 68.0959 12.58L66.3859 12.19C64.4659 11.75 62.9959 11.09 61.9759 10.21C60.9759 9.31 60.4759 8.05 60.4759 6.43C60.4759 5.51 60.6459 4.69 60.9859 3.97C61.3259 3.25 61.7959 2.65 62.3959 2.17C63.0159 1.69 63.7459 1.33 64.5859 1.09C65.4459 0.829999 66.3859 0.699999 67.4059 0.699999C68.9859 0.699999 70.3359 0.989999 71.4559 1.57C72.5959 2.15 73.5559 3 74.3359 4.12L72.4459 5.5C71.8659 4.7 71.1659 4.07 70.3459 3.61C69.5259 3.15 68.5059 2.92 67.2859 2.92C65.9459 2.92 64.8859 3.21 64.1059 3.79C63.3459 4.35 62.9659 5.2 62.9659 6.34C62.9659 7.34 63.2859 8.1 63.9259 8.62C64.5859 9.12 65.5759 9.52 66.8959 9.82L68.6059 10.21C70.6659 10.67 72.1559 11.37 73.0759 12.31C73.9959 13.25 74.4559 14.5 74.4559 16.06C74.4559 17.02 74.2859 17.89 73.9459 18.67C73.6259 19.45 73.1559 20.11 72.5359 20.65C71.9159 21.19 71.1559 21.61 70.2559 21.91C69.3759 22.21 68.3759 22.36 67.2559 22.36ZM81.9876 22C81.1476 22 80.5076 21.77 80.0676 21.31C79.6476 20.83 79.4376 20.21 79.4376 19.45V8.62H76.8876V6.52H78.3276C78.8476 6.52 79.1976 6.42 79.3776 6.22C79.5776 6 79.6776 5.63 79.6776 5.11V2.23H81.8376V6.52H85.2276V8.62H81.8376V19.9H84.9876V22H81.9876ZM94.818 22.36C93.778 22.36 92.828 22.17 91.968 21.79C91.108 21.41 90.368 20.87 89.748 20.17C89.148 19.45 88.678 18.6 88.338 17.62C87.998 16.62 87.828 15.5 87.828 14.26C87.828 13.04 87.998 11.93 88.338 10.93C88.678 9.93 89.148 9.08 89.748 8.38C90.368 7.66 91.108 7.11 91.968 6.73C92.828 6.35 93.778 6.16 94.818 6.16C95.858 6.16 96.798 6.35 97.638 6.73C98.498 7.11 99.238 7.66 99.858 8.38C100.478 9.08 100.958 9.93 101.298 10.93C101.638 11.93 101.808 13.04 101.808 14.26C101.808 15.5 101.638 16.62 101.298 17.62C100.958 18.6 100.478 19.45 99.858 20.17C99.238 20.87 98.498 21.41 97.638 21.79C96.798 22.17 95.858 22.36 94.818 22.36ZM94.818 20.23C96.118 20.23 97.178 19.83 97.998 19.03C98.818 18.23 99.228 17.01 99.228 15.37V13.15C99.228 11.51 98.818 10.29 97.998 9.49C97.178 8.69 96.118 8.29 94.818 8.29C93.518 8.29 92.458 8.69 91.638 9.49C90.818 10.29 90.408 11.51 90.408 13.15V15.37C90.408 17.01 90.818 18.23 91.638 19.03C92.458 19.83 93.518 20.23 94.818 20.23ZM105.755 22V6.52H108.155V9.37H108.305C108.585 8.63 109.085 7.97 109.805 7.39C110.525 6.81 111.515 6.52 112.775 6.52H113.705V8.92H112.295C110.995 8.92 109.975 9.17 109.235 9.67C108.515 10.15 108.155 10.76 108.155 11.5V22H105.755ZM122.444 22.36C121.384 22.36 120.424 22.17 119.564 21.79C118.724 21.41 117.994 20.87 117.374 20.17C116.774 19.45 116.304 18.6 115.964 17.62C115.644 16.62 115.484 15.5 115.484 14.26C115.484 13.04 115.644 11.93 115.964 10.93C116.304 9.93 116.774 9.08 117.374 8.38C117.994 7.66 118.724 7.11 119.564 6.73C120.424 6.35 121.384 6.16 122.444 6.16C123.484 6.16 124.414 6.35 125.234 6.73C126.054 7.11 126.754 7.64 127.334 8.32C127.914 8.98 128.354 9.77 128.654 10.69C128.974 11.61 129.134 12.62 129.134 13.72V14.86H118.004V15.58C118.004 16.24 118.104 16.86 118.304 17.44C118.524 18 118.824 18.49 119.204 18.91C119.604 19.33 120.084 19.66 120.644 19.9C121.224 20.14 121.874 20.26 122.594 20.26C123.574 20.26 124.424 20.03 125.144 19.57C125.884 19.11 126.454 18.45 126.854 17.59L128.564 18.82C128.064 19.88 127.284 20.74 126.224 21.4C125.164 22.04 123.904 22.36 122.444 22.36ZM122.444 8.17C121.784 8.17 121.184 8.29 120.644 8.53C120.104 8.75 119.634 9.07 119.234 9.49C118.854 9.91 118.554 10.41 118.334 10.99C118.114 11.55 118.004 12.17 118.004 12.85V13.06H126.554V12.73C126.554 11.35 126.174 10.25 125.414 9.43C124.674 8.59 123.684 8.17 122.444 8.17Z" fill="#7C6A0A"/>
</svg>
